<svg xmlns="http://www.w3.org/2000/svg" width="250" height="63" viewBox="0 0 250 63">
<!-- SVG created with Arrow, by QuiverAI (https://quiver.ai) -->
  <path d="m249.9 0h-249.8v63h249.8v-63z" fill="#303942"/>
  <path d="m30.36 7.02c-13.45 0-23.6 11.45-23.6 24.2v0.09c0 13.41 10.4 24.33 23.6 24.33 5.2 0 9.32-1.65 12.13-3.7 3.49 2.26 7.32 3.69 11.48 3.69 12.98 0 23.51-11.35 23.51-24.3s-10.27-24.31-23.51-24.31c-4.99 0-8.66 1.35-11.54 3.44-3.44-2.18-7.16-3.44-12.07-3.44z" fill="#D9D9D9"/>
  <path d="m42.43 10.45c-8.52 4.82-12.42 13.71-12.42 20.86v0.1c0 7.93 4.71 16.21 12.15 20.67l0.33-0.15c7.69-4.7 11.62-12.86 11.62-20.07 0-7.89-4.52-16.75-11.68-21.41z" fill="#50AB70"/>
  <path d="m98.61 21.47c4.7 0 6.95 2.52 8.13 5.05l-3.83 1.74c-1.19-2.25-2.46-3.04-4.42-3.04-3.54 0-5.08 3.04-5.08 5.89 0 3.12 1.78 5.81 5.12 5.81 2.25 0 3.55-1.19 4.66-2.89l3.59 1.78c-1.95 3.41-4.54 4.76-8.37 4.76-6.16 0-9.49-4.31-9.49-9.33 0-5.16 3.66-9.77 9.69-9.77z" fill="#FEFFFE"/>
  <path d="m118.2 21.47c6.59 0 9.75 4.61 9.75 9.56 0 5.14-3.41 9.54-9.63 9.54-6.39 0-9.68-4.52-9.68-9.54 0-5.07 3.46-9.56 9.56-9.56zm-0.04 3.84c-3.79 0-5.14 2.81-5.14 5.68 0 3.08 1.66 5.77 5.26 5.77 3.88 0 5.28-2.77 5.28-5.77 0-3.07-1.78-5.68-5.4-5.68z" fill="#FEFFFE"/>
  <path d="m131.6 21.87h4.07l0.33 1.87c1.58-1.46 3.28-2.27 5.68-2.27 3.38 0 5.41 1.26 6.68 3.25 2.03-2.2 3.88-3.25 6.77-3.25 5.67 0 7.52 4 7.52 8.29v10.31h-4.47v-10.15c0-2.87-1.14-4.61-3.93-4.61-2.57 0-4.56 1.9-5.28 4.45v10.31h-4.47v-10.15c0-2.75-1.22-4.61-4.01-4.61-2.75 0-4.16 1.82-4.42 4.49v10.27h-4.47v-18.2z" fill="#FEFFFE"/>
  <path d="m178.1 21.47c6.3 0 8.87 4.69 8.87 9.44 0 5.1-3.16 9.62-9.19 9.62-2.57 0-4.68-0.87-6.09-2.37l-0.49 1.91h-3.41v-24.71h4.35v8.31c1.61-1.35 3.6-2.2 5.96-2.2zm-0.77 3.84c-3.7 0-5.23 2.47-5.23 5.51 0 3.5 1.86 5.89 5.23 5.89 3.66 0 5.24-2.8 5.24-5.8 0-3.09-1.78-5.6-5.24-5.6z" fill="#FEFFFE"/>
  <path d="m193.4 12.61c2.89 0 3.29 2.25 3.29 3.16 0 1.82-1.45 3.13-3.34 3.13-2.4 0-3.34-1.64-3.34-3.09 0-1.6 1.22-3.2 3.39-3.2z" fill="#50AB70"/>
  <path d="m195.6 21.87h-4.47v18.2h4.47v-18.2z" fill="#FEFFFE"/>
  <path d="m201.2 21.87h4.07l0.32 1.95c1.7-1.58 3.52-2.35 6.09-2.35 5.67 0 7.84 3.49 7.84 8.29v10.31h-4.47v-10.15c0-3.07-1.39-4.61-4.18-4.61-2.93 0-4.53 1.86-4.53 4.9v9.86h-4.47v-18.2h-0.67z" fill="#FEFFFE"/>
  <path d="m234.1 21.47c6.68 0 8.92 5.34 9.17 8.7v2.52h-14.56c0.33 2.57 2.69 4.07 5.98 4.07 2.4 0 3.83-0.91 5.15-2.07l2.48 2.86c-2.28 2.16-4.6 2.97-7.81 2.97-6.47 0-10.02-4-10.02-9.29 0-5.11 3.7-9.76 9.61-9.76zm-0.04 3.64c-2.85 0-4.74 1.78-5.31 4.53h10.18c-0.49-2.59-2.19-4.53-4.87-4.53z" fill="#FEFFFE"/>
</svg>