<svg xmlns="http://www.w3.org/2000/svg" width="197" height="197" viewBox="0 0 197 197">
<!-- SVG created with Arrow, by QuiverAI (https://quiver.ai) -->
  <path d="m42.94 79c-3.52 0-6.85 0.94-9.73 2.56 6.02 3.35 9.7 9.73 10.44 16.35-0.54 6.86-4.13 12.84-10.44 16.82 2.9 1.64 5.91 2.63 9.73 2.63 10.77 0 18.72-9.09 18.72-19.19 0-10.33-8.05-19.17-18.72-19.17z" fill="#6A6E73" opacity=".2"/>
  <path d="m24.44 79c-10.45 0-19.02 8.83-19.02 19.43 0 10.23 7.97 18.93 18.79 18.93 3.49 0 6.27-0.89 9-2.39-6.22-3.56-9.9-9.22-9.9-16.81 0-7.17 3.95-13.24 9.9-16.6-2.76-1.72-5.41-2.56-8.77-2.56z" fill="#6A6E73" opacity=".2"/>
  <path d="m33.21 81.56c-5.95 3.36-9.9 9.43-9.9 16.6 0 7.59 3.68 13.25 9.9 16.81 6.31-3.98 9.9-9.97 10.44-16.83-0.74-6.85-4.42-13.23-10.44-16.58z" fill="#52AD6E"/>
  <path d="m72.16 97.61c0-5.23 4.03-7.63 8-7.2 2.72 0.27 4.46 1.25 5.91 3.38l-2.6 1.72c-1.1-1.7-2.23-2.07-3.55-2.07-2.41 0-3.91 1.95-3.91 4.31 0 2.54 1.6 4.5 3.98 4.5 1.55 0 2.79-0.93 3.68-2.39l2.6 1.55c-1.56 2.6-3.49 3.68-6.46 3.68-4.06 0-7.65-2.47-7.65-7.48z" fill="#3C3F45"/>
  <path d="m87.69 97.41c0-4.97 3.39-7.42 7.36-7.1 4.07 0 7.26 2.48 7.26 7.1 0 4.94-3.39 7.42-7.36 7.42-4.07 0-7.26-2.48-7.26-7.42zm11.1 0c0-2.8-1.75-4.4-3.84-4.4-2.24 0-3.94 1.57-3.94 4.4 0 2.77 1.76 4.4 3.94 4.4 2.24 0 3.84-1.63 3.84-4.4z" fill="#3C3F45"/>
  <path d="m105.3 90.71h3.35v1.35c1.02-1.13 2.45-1.67 4.27-1.67 2.31 0 4.01 0.92 4.96 2.57 1.2-1.75 2.9-2.57 5-2.57 4.33 0 6.13 2.83 6.13 6.69v7.7h-3.35v-7.49c0-2.36-0.95-4.01-3.21-4.01-2.14 0-3.74 1.6-3.74 4.46v7.04h-3.35v-7.47c0-2.33-0.92-4-3.13-4s-3.58 1.55-3.58 4.4v7.07h-3.35v-14.07z" fill="#3C3F45"/>
  <path d="m136.5 103.2v1.47h-3.35v-19.51h3.49v7.21c1.26-1.33 2.99-1.96 4.88-1.96 4.26 0 6.74 2.95 6.41 7.33-0.2 4.01-2.93 7.12-7.13 7.03-1.7-0.03-3.22-0.49-4.3-1.57zm8.23-5.55c0-2.8-1.76-4.51-4.09-4.51-2.41 0-4.11 1.75-4.11 4.41 0 2.8 1.8 4.45 4.11 4.45s4.09-1.75 4.09-4.35z" fill="#3C3F45"/>
  <path d="m151.2 90.71h3.35v14.07h-3.35v-14.07z" fill="#3C3F45"/>
  <path d="m159.5 90.71h3.35v1.35c0.99-1.15 2.44-1.67 4.24-1.67 4.33 0 6.13 2.57 6.13 6.43v7.96h-3.35v-7.49c0-2.36-1.18-3.93-3.42-3.93-2.11 0-3.6 1.53-3.6 4.28v7.14h-3.35v-14.07z" fill="#3C3F45"/>
  <path d="m176.4 97.38c0-4.21 2.88-7.07 7.42-6.97 4.59 0.1 7.46 3.45 6.99 8.18h-11c0.3 2.21 2 3.42 4.31 3.42 1.7 0 3.02-0.7 4.04-1.65l1.96 2.31c-1.7 1.6-3.4 2.35-5.81 2.35-4.94 0-7.91-2.93-7.91-7.64zm11.42-0.94c-0.5-2.24-2-3.33-4.04-3.33-2.11 0-3.57 1.26-4.01 3.33h8.05z" fill="#3C3F45"/>
  <path d="m153 83.01c-2.11 0-2.54 1.5-2.54 2.58 0 1.63 1.08 2.62 2.61 2.62 1.73 0 2.65-1.39 2.65-2.68 0-1.36-0.92-2.52-2.72-2.52z" fill="#52AD6E"/>
</svg>