<svg xmlns="http://www.w3.org/2000/svg" width="1200" height="630" viewBox="0 0 1200 630">
  <!-- Combine Trade OG Image -->
  <rect width="1200" height="630" fill="#303942"/>

  <!-- Icon centered, scaled up — original relative paths from logo-dark.svg -->
  <g transform="translate(389, 73) scale(5)">
    <path d="m30.36 7.02c-13.45 0-23.6 11.45-23.6 24.2v0.09c0 13.41 10.4 24.33 23.6 24.33 5.2 0 9.32-1.65 12.13-3.7 3.49 2.26 7.32 3.69 11.48 3.69 12.98 0 23.51-11.35 23.51-24.3s-10.27-24.31-23.51-24.31c-4.99 0-8.66 1.35-11.54 3.44-3.44-2.18-7.16-3.44-12.07-3.44z" fill="#D9D9D9"/>
    <path d="m42.43 10.45c-8.52 4.82-12.42 13.71-12.42 20.86v0.1c0 7.93 4.71 16.21 12.15 20.67l0.33-0.15c7.69-4.7 11.62-12.86 11.62-20.07 0-7.89-4.52-16.75-11.68-21.41z" fill="#50AB70"/>
  </g>

  <!-- Text "combine" -->
  <text x="600" y="520" text-anchor="middle" font-family="system-ui, -apple-system, sans-serif" font-size="64" font-weight="600" fill="#FEFFFE" letter-spacing="4">combine</text>

  <!-- Subtitle -->
  <text x="600" y="570" text-anchor="middle" font-family="system-ui, -apple-system, sans-serif" font-size="24" fill="#8B9DAF" letter-spacing="2">Automated Futures Trading</text>
</svg>
